# xmcd
#
# Track frame offsets: 
#        207
#        12172
#        24337
#        35367
#        45897
#        56940
#        68675
#        80900
#        91425
#        102110
#        114012
#        126647
#
# Disc length: 1864 seconds
#
# Revision: 1
# Processed by: cddbd v1.4PL0 Copyright (c) Steve Scherf et al.
# Submitted via: ExactAudioCopy v0.90b3
#
DISCID=9307460c
DTITLE=George Jones - Sings Like The Dickens
DYEAR=1900
DGENRE=Country
TTITLE0=It Scares Me Half To Death
TTITLE1=A Rose From A Bride's Bouquet
TTITLE2=When Your House Is Not A Home
TTITLE3=I'm Just Blue Enough
TTITLE4=We Could
TTITLE5=Take Me As I Am (Or Let Me Go)
TTITLE6=Where Did The Sunshine Go
TTITLE7=Making The Rounds
TTITLE8=I've Just Got To See You Once More
TTITLE9=Lovin' Lies
TTITLE10=Just When I Needed You
TTITLE11=My Heart's Bouquet
EXTD=
EXTT0=
EXTT1=
EXTT2=
EXTT3=
EXTT4=
EXTT5=
EXTT6=
EXTT7=
EXTT8=
EXTT9=
EXTT10=
EXTT11=
PLAYORDER=
